<svg fill="#fff" height="100%" version="1.1" viewBox="0 0 700 700" xmlns="http://www.w3.org/2000/svg" xmlns:xlink="http://www.w3.org/1999/xlink">
 <g>
  <path d="m579.55 105.25c-0.074219-0.24219-0.16797-0.46094-0.26172-0.69922-0.19531-0.51953-0.42187-1.0117-0.72656-1.5-0.14062-0.23047-0.30078-0.46094-0.46875-0.67578-0.32422-0.4375-0.69922-0.83594-1.1094-1.1914-0.19141-0.17969-0.37109-0.35938-0.58984-0.53125-0.089843-0.0625-0.15625-0.15625-0.24219-0.21875-0.55859-0.38672-1.1484-0.67578-1.7656-0.91797-0.035157-0.011719-0.0625-0.042969-0.09375-0.0625l-119.83-45.863v-7.6133c0-1.8711-0.20313-3.6836-0.60938-5.4492-0.80078-3.5117-2.3789-6.8086-4.6367-9.8906-1.125-1.5352-2.418-3.0195-3.8516-4.4414-17.328-17.133-56.695-26.199-94.281-26.199h-0.007812-0.011719-0.007812c-43.848 0-90.121 12.344-101 35.43-1.5508 3.2969-2.3867 6.8203-2.3867 10.551v5.4023l-121.91 45.938c-0.078124 0.03125-0.12891 0.074219-0.1875 0.11328-0.58984 0.23047-1.1602 0.50391-1.6914 0.86719-0.085937 0.0625-0.14453 0.14453-0.23047 0.20703-0.22266 0.16797-0.40234 0.34766-0.60547 0.53125-0.41016 0.375-0.78516 0.75-1.1094 1.1797-0.17188 0.23047-0.33594 0.46094-0.48047 0.69922-0.29297 0.46094-0.51953 0.94141-0.71875 1.4609-0.09375 0.24219-0.20703 0.46875-0.27344 0.72266-0.21094 0.73828-0.34766 1.5117-0.36328 2.3086-0.003906 0.03125-0.015625 0.054688-0.015625 0.089844v0.011719 120.16c0 0.023437 0.011719 0.050781 0.011719 0.078125v0.011719 120.16c0 0.019531-0.011719 0.046875-0.011719 0.082031v0.011719 120.16c0 3.625 2.2383 6.8828 5.6328 8.1758l222.2 85.062c0.074219 0.027344 0.16797 0.011719 0.24219 0.050782 0.94141 0.33203 1.9023 0.53125 2.8828 0.53125s1.9336-0.20312 2.8516-0.51953c0.085938-0.023437 0.16797-0.011718 0.24219-0.050781l220.09-82.922c3.3984-1.2891 5.6602-4.5469 5.6602-8.1992v-120.15-0.023438c0-0.027343 0.011719-0.0625 0.011719-0.089843v-120.14c0-0.035156 0.015625-0.074219 0.015625-0.11719v-120.14c0-0.82422-0.14844-1.6211-0.36719-2.3906zm-95.16 25.715-133.32 50.238-197.55-75.625 94.137-35.465v32.219c0 29.863 53.266 45.969 103.38 45.969 50.125 0 103.4-16.105 103.4-45.969v-29.977l92.012 35.23zm-133.32-0.19141v-38.812c32.414-0.011719 66.059-6.7891 85.848-19.633v30.012c0 11.59-33.438 28.434-85.848 28.434zm82.414-91.73c2.2461 2.3984 3.4258 4.7617 3.4258 6.9336 0 11.598-33.449 28.449-85.859 28.449-52.414 0-85.863-16.844-85.863-28.449 0-0.72266 0.13281-1.4688 0.38672-2.2305 3.8711-11.414 36.34-26.219 85.477-26.219 42.594 0.003906 72.656 11.129 82.434 21.516zm128.88 423.2-202.55 76.324 0.015625-221.79 0.003906-18.73v-101.41l202.54-76.316 0.023437-0.003906-0.011719 120.15z"/>
  <use x="120.082031" y="644" xlink:href="#t"/>
  <use x="140.628906" y="644" xlink:href="#c"/>
  <use x="154.4375" y="644" xlink:href="#b"/>
  <use x="173.429688" y="644" xlink:href="#e"/>
  <use x="192.324219" y="644" xlink:href="#a"/>
  <use x="205.707031" y="644" xlink:href="#b"/>
  <use x="224.699219" y="644" xlink:href="#k"/>
  <use x="254.488281" y="644" xlink:href="#j"/>
  <use x="274.53125" y="644" xlink:href="#i"/>
  <use x="302.53125" y="644" xlink:href="#g"/>
  <use x="312.128906" y="644" xlink:href="#d"/>
  <use x="331.367188" y="644" xlink:href="#f"/>
  <use x="361.046875" y="644" xlink:href="#a"/>
  <use x="374.433594" y="644" xlink:href="#c"/>
  <use x="388.242188" y="644" xlink:href="#s"/>
  <use x="397.839844" y="644" xlink:href="#h"/>
  <use x="407.4375" y="644" xlink:href="#h"/>
  <use x="417.035156" y="644" xlink:href="#e"/>
  <use x="435.929688" y="644" xlink:href="#f"/>
  <use x="455.863281" y="644" xlink:href="#e"/>
  <use x="120.082031" y="672" xlink:href="#r"/>
  <use x="132.261719" y="672" xlink:href="#c"/>
  <use x="146.070312" y="672" xlink:href="#d"/>
  <use x="165.308594" y="672" xlink:href="#q"/>
  <use x="204.230469" y="672" xlink:href="#a"/>
  <use x="217.617188" y="672" xlink:href="#p"/>
  <use x="237.550781" y="672" xlink:href="#b"/>
  <use x="266.289062" y="672" xlink:href="#o"/>
  <use x="289.722656" y="672" xlink:href="#d"/>
  <use x="308.957031" y="672" xlink:href="#n"/>
  <use x="328.890625" y="672" xlink:href="#f"/>
  <use x="358.574219" y="672" xlink:href="#m"/>
  <use x="379.09375" y="672" xlink:href="#c"/>
  <use x="392.902344" y="672" xlink:href="#d"/>
  <use x="412.140625" y="672" xlink:href="#g"/>
  <use x="421.738281" y="672" xlink:href="#b"/>
  <use x="440.726562" y="672" xlink:href="#l"/>
  <use x="457.324219" y="672" xlink:href="#a"/>
 </g>
</svg>
